<?xml version="1.0" standalone="no"?>
<!DOCTYPE svg PUBLIC "-//W3C//DTD SVG 20010904//EN"
 "http://www.w3.org/TR/2001/REC-SVG-20010904/DTD/svg10.dtd">
<svg version="1.0" xmlns="http://www.w3.org/2000/svg"
 width="777.000000pt" height="777.000000pt" viewBox="0 0 777.000000 777.000000"
 preserveAspectRatio="xMidYMid meet">
<metadata>
Created by potrace 1.11, written by Peter Selinger 2001-2013
</metadata>
<g transform="translate(0.000000,777.000000) scale(0.100000,-0.100000)"
fill="#000000" stroke="none">
<path d="M6038 7743 c0 -5 -2 -14 -2 -22 -1 -8 -7 -16 -15 -19 -8 -3 -11 0 -7
7 4 6 2 11 -4 11 -6 0 -8 5 -4 12 4 7 3 8 -5 4 -6 -4 -9 -12 -6 -17 4 -5 3 -9
-2 -10 -26 -2 -47 -9 -55 -17 -7 -7 -23 -3 -47 10 -20 11 -28 13 -18 5 18 -15
24 -32 7 -22 -5 3 -10 2 -10 -4 0 -6 -7 -8 -15 -5 -8 4 -23 3 -32 -2 -10 -4
-21 -8 -25 -8 -3 -1 -9 -4 -13 -8 -4 -4 -18 -3 -31 2 -18 7 -24 6 -24 -5 0 -7
-9 -13 -19 -12 -11 0 -18 4 -16 7 2 3 -5 6 -15 6 -18 0 -18 -1 -2 -21 9 -11
10 -14 2 -7 -17 14 -56 16 -65 2 -3 -5 -10 -10 -16 -10 -14 0 -11 28 4 33 9 4
9 6 -1 6 -8 1 -16 -8 -19 -19 -3 -11 -12 -20 -19 -20 -8 0 -14 -4 -14 -9 0 -4
-10 -8 -22 -8 -43 -1 -49 -3 -42 -15 4 -7 -8 -1 -26 12 -18 13 -30 19 -27 13
9 -14 -20 -24 -51 -18 -13 2 -20 0 -17 -6 4 -5 12 -6 18 -3 7 4 8 3 4 -2 -5
-5 -13 -10 -18 -10 -5 -1 -10 -2 -11 -3 -11 -9 -48 -9 -53 -1 -4 7 -13 6 -26
-1 -11 -6 -28 -8 -36 -5 -13 5 -14 4 -3 -9 11 -13 10 -14 -5 -9 -12 5 -16 4
-11 -4 3 -6 1 -14 -5 -18 -8 -4 -9 -3 -5 4 10 16 -7 15 -23 0 -11 -10 -13 -10
-7 0 4 6 2 12 -3 12 -6 0 -11 -6 -11 -12 0 -9 -4 -8 -10 2 -9 13 -10 13 -10 0
0 -13 -1 -13 -10 0 -9 13 -10 13 -10 0 -1 -11 -4 -10 -16 5 -16 20 -16 19 -9
-4 5 -15 3 -21 -3 -17 -14 8 -43 -4 -36 -15 3 -5 -3 -6 -12 -2 -13 5 -15 3 -9
-8 5 -8 -1 -6 -12 4 -21 18 -22 18 -32 0 -6 -10 -11 -13 -11 -6 0 16 -68 10
-84 -7 -8 -10 -8 -11 1 -6 24 13 54 16 47 4 -5 -8 -1 -9 12 -4 15 6 17 5 7 -5
-10 -10 -16 -10 -24 -2 -9 9 -19 8 -40 -3 -25 -13 -28 -13 -23 1 4 8 1 15 -5
15 -6 0 -11 -6 -11 -12 0 -14 -52 -18 -61 -5 -3 4 -12 1 -19 -8 -11 -13 -10
-15 6 -9 16 5 16 4 4 -5 -12 -9 -13 -11 -1 -11 8 0 11 -3 8 -6 -4 -4 -13 -1
-22 6 -12 10 -18 10 -30 0 -9 -7 -18 -10 -22 -7 -3 4 -15 2 -26 -4 -11 -7 -17
-7 -13 -1 3 5 -2 16 -12 23 -15 12 -16 12 -5 -2 17 -21 6 -31 -19 -18 -11 6
-22 8 -26 5 -3 -3 1 -6 9 -6 12 0 11 -2 -1 -11 -13 -9 -12 -10 2 -5 10 3 20 0
24 -6 4 -6 3 -8 -4 -4 -6 3 -14 1 -18 -5 -4 -8 -11 -4 -20 12 l-13 24 -1 -23
c0 -13 -4 -20 -10 -17 -6 4 -7 11 -4 17 4 7 2 8 -5 4 -6 -4 -9 -11 -6 -16 8
-13 -21 -20 -34 -7 -8 8 -11 6 -11 -7 0 -16 -1 -16 -16 -2 -17 18 -28 21 -19
6 3 -5 0 -10 -7 -10 -7 -1 -2 -7 12 -15 l25 -15 -28 4 c-18 3 -25 1 -21 -6 13
-20 13 -57 1 -52 -7 2 -18 -6 -26 -18 -10 -18 -10 -20 0 -10 19 18 33 15 15
-4 -9 -8 -14 -20 -11 -25 4 -5 1 -9 -4 -9 -6 0 -11 -7 -11 -16 0 -9 5 -12 11
-8 7 4 10 1 7 -7 -3 -8 -10 -14 -15 -14 -6 0 -15 -4 -20 -9 -5 -5 -3 -6 5 -2
6 4 12 3 12 -2 0 -5 -10 -14 -22 -21 -13 -6 -16 -10 -7 -7 9 2 16 -2 16 -10 0
-7 -4 -11 -8 -9 -12 8 -20 -27 -9 -40 5 -6 7 -15 3 -18 -3 -4 -6 -21 -5 -39 0
-29 -1 -30 -9 -10 -11 29 -18 28 -14 -3 2 -19 -1 -23 -10 -15 -10 8 -15 8 -21
-1 -4 -8 -3 -9 4 -5 7 4 12 1 12 -10 0 -14 -3 -14 -15 -4 -9 7 -14 18 -11 25
2 6 -2 12 -10 12 -7 0 -11 -3 -9 -7 2 -4 -2 -7 -10 -7 -10 0 -11 5 -4 18 8 15
6 17 -7 12 -13 -5 -15 -3 -9 7 6 10 4 12 -10 7 -14 -6 -16 -3 -12 14 3 11 3
18 0 15 -4 -3 -15 1 -25 11 -10 9 -18 12 -18 7 0 -5 -5 -2 -11 6 -9 13 -10 13
-6 0 2 -8 10 -14 16 -12 7 1 10 -2 6 -7 -16 -26 -43 13 -36 52 1 5 -3 6 -9 2
-6 -3 -8 -11 -5 -16 4 -5 1 -9 -4 -9 -10 0 -15 14 -12 33 1 5 -3 6 -9 2 -6 -3
-8 -11 -5 -16 4 -5 1 -9 -4 -9 -6 0 -11 7 -11 15 0 8 -5 15 -11 15 -5 0 -8 4
-5 9 6 10 -11 10 -29 0 -23 -12 -40 -3 -39 21 2 22 1 23 -11 7 -9 -12 -14 -14
-17 -6 -2 7 -12 13 -21 15 -11 1 -15 -2 -11 -9 4 -7 1 -7 -7 1 -12 11 -12 14
1 22 9 6 10 10 3 10 -6 0 -14 -4 -18 -10 -3 -5 -12 -7 -20 -3 -9 3 -23 -1 -33
-8 -14 -11 -15 -11 -4 1 19 22 15 27 -20 25 -18 -1 -38 2 -44 7 -7 5 -18 2
-28 -7 -10 -10 -16 -12 -16 -5 0 8 -10 10 -25 8 -20 -4 -23 -2 -15 7 8 10 7
15 -1 21 -8 5 -9 3 -4 -6 6 -10 3 -12 -14 -7 -19 5 -20 3 -9 -10 11 -14 11
-15 -8 -5 -12 6 -24 9 -28 7 -3 -3 -2 1 4 7 16 19 11 31 -6 14 -12 -13 -20
-14 -36 -5 -13 7 -18 7 -14 1 3 -6 2 -13 -4 -17 -5 -3 -10 -1 -10 5 0 6 -5 8
-10 5 -6 -4 -8 -9 -6 -13 2 -4 -7 -8 -20 -8 -13 -1 -24 2 -24 8 0 5 4 7 8 4 5
-3 9 1 9 9 0 12 -3 12 -15 2 -8 -6 -17 -11 -19 -9 -1 1 -6 1 -10 1 -25 -5 -49
-3 -56 6 -5 6 -7 4 -4 -5 2 -8 12 -14 21 -14 13 2 14 -1 5 -13 -9 -10 -14 -11
-19 -3 -4 7 -11 10 -15 8 -5 -1 -9 7 -10 19 -1 13 -5 26 -10 30 -4 5 -4 -3 0
-16 4 -13 3 -21 -2 -18 -5 3 -15 2 -23 -3 -9 -5 -20 -4 -29 3 -12 10 -12 9 -1
-13 12 -22 12 -24 -2 -12 -12 9 -18 10 -23 2 -5 -8 -11 -7 -23 2 -13 11 -15
11 -10 -3 4 -10 1 -16 -8 -16 -8 0 -13 6 -10 13 3 8 0 16 -6 20 -6 4 -8 3 -4
-4 3 -6 2 -13 -4 -17 -6 -4 -8 -11 -4 -16 3 -5 2 -9 -3 -8 -4 1 -10 0 -13 -1
-17 -6 -39 -7 -35 -1 2 4 -2 8 -10 8 -8 0 -15 -5 -15 -10 0 -6 -3 -7 -7 -4 -8
8 -34 -13 -28 -22 2 -4 -6 -6 -18 -5 -12 1 -26 3 -30 3 -5 1 -5 7 -1 14 4 6 3
8 -1 4 -13 -11 -15 -38 -3 -31 7 4 8 2 4 -5 -6 -9 -11 -9 -24 1 -10 8 -13 9
-9 1 4 -6 2 -15 -4 -19 -8 -4 -9 -3 -5 4 4 7 2 12 -5 12 -8 0 -7 5 2 18 13 15
12 16 -3 3 -10 -7 -15 -18 -11 -24 4 -6 0 -8 -9 -5 -8 4 -21 2 -29 -2 -8 -5
-19 -4 -28 3 -12 9 -13 9 -7 0 4 -7 2 -13 -3 -13 -6 0 -11 -5 -11 -11 0 -8 5
-8 15 1 10 9 15 9 15 1 0 -6 -5 -11 -11 -11 -5 0 -8 -4 -4 -9 3 -6 -4 -8 -15
-6 -11 2 -24 -3 -30 -13 -5 -9 -10 -12 -10 -6 0 15 25 36 33 27 4 -3 7 -4 7
-1 0 3 -7 11 -16 18 -8 8 -14 9 -12 4 5 -16 -30 -57 -45 -51 -7 3 -19 -4 -26
-14 -6 -11 -16 -17 -21 -14 -6 3 -10 1 -10 -4 0 -6 -5 -11 -12 -11 -9 0 -9 3
0 12 15 15 15 28 1 28 -5 0 -8 -4 -5 -9 7 -11 -19 -33 -28 -24 -4 4 -4 0 -1
-8 3 -8 -3 -23 -13 -32 -15 -14 -19 -14 -19 -2 0 8 5 11 10 8 6 -4 7 -1 2 7
-6 9 -4 11 5 5 9 -6 11 -4 5 4 -10 17 -35 -8 -38 -36 -1 -15 -7 -20 -20 -17
-11 2 -27 -1 -36 -7 -14 -9 -14 -9 1 -7 9 2 17 -1 17 -7 1 -13 -21 -14 -38 -1
-11 8 -13 8 -7 -1 4 -8 2 -13 -4 -13 -6 0 -8 -5 -5 -11 4 -6 1 -9 -6 -8 -26 4
-49 -13 -49 -37 0 -13 -5 -24 -11 -24 -5 0 -7 6 -3 13 4 6 -5 1 -19 -12 -15
-14 -27 -31 -27 -39 0 -9 -6 -12 -17 -8 -17 6 -17 5 -1 -7 20 -16 14 -29 -8
-20 -8 3 -14 1 -12 -5 2 -5 -1 -9 -5 -9 -5 1 -13 -6 -19 -16 -8 -15 -12 -16
-26 -6 -14 11 -15 11 -5 -1 7 -8 13 -23 13 -34 0 -18 -2 -19 -11 -6 -9 12 -10
11 -6 -8 3 -14 1 -20 -6 -15 -6 4 -8 0 -4 -9 8 -21 -3 -31 -19 -17 -9 8 -11 5
-7 -9 2 -11 -1 -23 -8 -27 -7 -5 -10 -4 -5 3 3 6 2 13 -3 17 -10 5 -5 -40 5
-57 3 -4 -2 -5 -10 -2 -9 3 -13 11 -9 17 3 5 1 7 -5 4 -5 -4 -9 -19 -7 -33 2
-18 -1 -24 -12 -20 -8 3 -12 2 -8 -3 3 -5 -3 -17 -12 -27 -16 -16 -16 -16 7
-10 17 5 21 4 11 -2 -7 -5 -10 -15 -6 -22 6 -9 3 -9 -12 -2 -15 9 -20 8 -20
-3 0 -8 3 -12 7 -10 4 2 7 -2 7 -10 0 -8 -4 -12 -9 -9 -5 4 -12 -4 -15 -15 -5
-20 -6 -20 -19 -4 -12 17 -13 16 -9 -4 3 -18 -1 -23 -16 -23 -13 0 -18 -5 -14
-12 4 -7 -1 -4 -11 7 -15 18 -16 18 -10 1 4 -13 2 -17 -8 -13 -8 3 -20 -1 -26
-8 -7 -8 -17 -12 -23 -8 -6 4 -7 1 -3 -6 6 -9 12 -8 26 4 14 12 20 13 26 4 4
-7 3 -10 -3 -6 -6 4 -16 0 -23 -8 -6 -7 -17 -12 -25 -9 -7 3 -16 0 -21 -7 -4
-8 -3 -10 4 -5 8 5 10 2 6 -8 -5 -14 -8 -14 -21 -1 -19 19 -39 9 -22 -11 6 -8
9 -17 5 -21 -3 -4 -12 2 -20 13 -13 17 -14 16 -9 -10 4 -20 2 -27 -6 -22 -6 4
-11 2 -11 -4 0 -6 -5 -8 -11 -4 -7 4 -9 0 -5 -13 5 -16 -1 -24 -28 -37 -25
-12 -34 -21 -30 -34 5 -14 3 -14 -10 2 -19 23 -21 14 -4 -17 10 -19 9 -20 -4
-9 -12 10 -17 10 -26 0 -6 -7 -11 -17 -11 -23 -1 -5 -4 -18 -7 -28 -5 -14 -9
-16 -20 -6 -12 10 -13 9 -9 -4 4 -8 1 -18 -6 -23 -8 -5 -10 -3 -4 6 5 8 4 11
-2 7 -5 -3 -8 -21 -6 -39 3 -24 2 -29 -6 -18 -5 8 -7 19 -4 25 3 5 0 5 -7 -2
-7 -6 -13 -26 -14 -44 -1 -18 -8 -35 -15 -37 -9 -3 -11 0 -6 8 5 8 4 11 -3 6
-6 -4 -8 -14 -5 -23 4 -9 -1 -22 -13 -31 -16 -12 -16 -14 -1 -9 9 4 17 3 17
-2 0 -5 -9 -11 -20 -14 -11 -3 -20 -10 -20 -16 0 -6 8 -8 18 -5 9 2 7 -1 -5
-7 -13 -7 -23 -16 -23 -21 0 -5 6 -6 13 -3 6 4 4 0 -5 -8 -23 -18 -23 -28 0
-20 14 5 13 3 -3 -10 -11 -8 -23 -13 -26 -11 -4 2 -5 -5 -2 -16 3 -11 -1 -28
-8 -37 -8 -9 -9 -14 -3 -10 7 4 11 -2 10 -16 -1 -15 -7 -21 -20 -20 -15 1 -17
-5 -14 -33 3 -26 0 -34 -12 -35 -10 0 -9 -3 5 -9 11 -5 14 -9 7 -9 -9 -1 -10
-6 -2 -20 7 -14 7 -22 0 -26 -6 -4 -7 -11 -4 -17 4 -6 2 -8 -3 -5 -6 4 -16 -6
-22 -23 -5 -17 -6 -28 -2 -25 5 3 7 -4 4 -15 -3 -11 -9 -17 -14 -14 -5 3 -6
-2 -3 -10 3 -9 11 -16 17 -16 6 0 2 -7 -9 -16 -10 -8 -14 -13 -8 -10 14 7 27
-21 17 -37 -4 -7 -8 -19 -8 -27 0 -8 -8 -15 -17 -15 -9 0 -20 -4 -25 -8 -4 -5
-3 -8 2 -7 24 5 31 -2 31 -30 -1 -16 -10 -36 -21 -45 -11 -9 -14 -14 -7 -10 6
3 12 2 12 -2 0 -5 -6 -15 -12 -22 -10 -11 -10 -13 0 -7 7 5 12 1 12 -9 0 -9
-4 -14 -8 -11 -5 3 -9 -1 -9 -9 0 -8 4 -12 8 -10 4 3 10 -2 13 -11 3 -8 2 -12
-3 -9 -5 3 -12 1 -16 -5 -3 -5 -1 -10 6 -10 9 0 9 -3 0 -14 -9 -11 -8 -15 5
-20 15 -6 15 -8 -2 -27 -15 -17 -16 -22 -4 -29 11 -7 11 -11 1 -24 -11 -13
-11 -16 0 -16 11 0 11 -2 -1 -10 -12 -8 -12 -10 -1 -10 11 0 11 -3 1 -15 -12
-14 -7 -19 13 -16 5 1 6 -3 2 -9 -3 -6 -11 -8 -16 -5 -5 4 -9 1 -9 -4 0 -6 5
-11 11 -11 8 0 7 -6 -2 -17 -11 -13 -11 -17 -1 -21 10 -3 10 -7 0 -20 -10 -12
-10 -16 0 -19 6 -3 12 -9 12 -14 0 -6 -6 -7 -12 -3 -9 5 -9 2 1 -9 7 -9 9 -17
4 -17 -4 0 -8 -18 -8 -40 0 -22 4 -40 8 -40 5 0 4 -7 -4 -16 -10 -13 -10 -17
2 -25 11 -7 11 -9 1 -9 -10 0 -10 -4 2 -16 20 -19 20 -25 1 -18 -8 4 -15 1
-15 -5 0 -6 5 -11 10 -11 7 0 7 -6 0 -20 -7 -14 -7 -20 0 -20 5 0 10 -5 10
-11 0 -5 -4 -8 -8 -5 -5 3 -9 -1 -9 -9 0 -8 5 -15 11 -15 6 0 4 -5 -4 -10 -12
-8 -12 -10 5 -11 l20 0 -20 -9 c-11 -5 -15 -9 -10 -9 6 -1 11 -14 11 -31 1
-16 -2 -27 -6 -25 -5 3 -12 1 -15 -5 -4 -6 -1 -9 6 -8 7 2 13 -9 14 -24 1 -15
-2 -25 -6 -22 -4 2 -11 0 -14 -6 -4 -6 -1 -9 7 -8 7 2 11 -4 9 -12 -8 -36 -8
-70 1 -70 6 0 6 -6 -1 -14 -9 -11 -9 -15 1 -18 10 -4 10 -8 -1 -21 -11 -14
-11 -17 0 -17 11 0 11 -2 -1 -10 -12 -8 -12 -10 5 -11 l20 0 -20 -9 c-11 -5
-15 -9 -10 -9 6 -1 11 -14 11 -31 1 -16 -2 -27 -6 -25 -5 3 -12 1 -15 -5 -4
-6 -1 -9 6 -8 7 2 13 -9 14 -24 1 -15 -2 -25 -6 -22 -4 2 -11 0 -14 -6 -4 -6
-1 -9 7 -8 7 2 11 -4 9 -12 -7 -31 -8 -70 -2 -70 4 0 7 -9 7 -19 0 -11 -4 -17
-8 -15 -4 3 -8 0 -8 -5 0 -6 4 -11 10 -11 12 0 8 -43 -5 -52 -6 -5 -5 -8 4 -8
11 0 11 -3 1 -15 -10 -12 -10 -15 0 -15 10 0 10 -3 0 -15 -10 -12 -10 -15 1
-15 11 0 11 -2 -1 -10 -10 -6 -11 -10 -2 -10 6 0 12 -5 12 -11 0 -5 -4 -8 -8
-5 -5 3 -9 -1 -9 -9 0 -8 5 -15 11 -15 6 0 4 -5 -4 -10 -12 -8 -12 -10 5 -11
l20 0 -20 -9 c-11 -5 -15 -9 -10 -9 6 -1 11 -14 11 -31 1 -16 -2 -27 -6 -25
-5 3 -12 1 -15 -5 -4 -6 -1 -9 6 -8 7 2 13 -9 14 -24 1 -15 -2 -25 -6 -22 -4
2 -11 0 -14 -6 -4 -6 -1 -9 7 -8 7 2 11 -4 9 -12 -7 -31 -8 -70 -2 -70 4 0 7
-9 7 -19 0 -11 -4 -17 -8 -15 -4 3 -8 0 -8 -5 0 -6 4 -11 10 -11 12 0 8 -43
-5 -52 -6 -5 -5 -8 4 -8 11 0 11 -3 1 -15 -10 -12 -10 -15 0 -15 10 0 10 -3 0
-15 -10 -12 -10 -15 0 -15 10 0 10 -4 -1 -16 -9 -11 -10 -17 -2 -22 14 -9 12
-44 -2 -54 -6 -5 -5 -8 4 -8 11 0 11 -3 1 -15 -10 -12 -10 -15 0 -15 10 0 10
-3 0 -15 -10 -12 -10 -15 1 -15 11 0 11 -2 -1 -10 -10 -6 -11 -10 -2 -10 6 0
12 -5 12 -11 0 -5 -4 -8 -8 -5 -5 3 -9 -1 -9 -9 0 -8 5 -15 11 -15 6 0 4 -5
-4 -10 -12 -8 -12 -10 5 -11 l20 0 -20 -9 c-11 -5 -15 -9 -9 -9 13 -1 13 -56
0 -68 -5 -5 -6 -2 -1 6 6 10 4 12 -4 6 -9 -5 -7 -12 8 -26 25 -23 27 -31 6
-23 -10 4 -13 -1 -12 -23 1 -15 7 -31 12 -35 6 -5 4 -8 -4 -8 -11 0 -10 -4 5
-16 10 -8 14 -13 7 -10 -6 4 -14 2 -18 -4 -3 -5 -2 -10 3 -10 5 0 9 -7 9 -15
0 -8 -4 -15 -9 -15 -5 0 -4 -9 2 -19 5 -11 6 -22 1 -25 -9 -6 -7 -54 3 -63 3
-3 1 -14 -5 -25 -8 -16 -7 -20 8 -24 12 -3 19 -15 20 -32 2 -26 1 -26 -7 -4
-12 29 -22 29 -11 0 4 -13 6 -30 4 -38 -4 -12 -3 -12 5 -2 7 11 10 10 16 -3 8
-22 8 -27 -2 -21 -5 3 -9 -1 -9 -9 0 -8 4 -12 8 -10 4 3 5 -15 3 -40 -3 -31
-1 -45 8 -45 6 0 3 -6 -8 -14 -17 -13 -18 -15 -2 -21 9 -4 22 -3 29 1 8 4 9 3
5 -4 -4 -7 -15 -12 -24 -12 -14 0 -15 -2 -2 -9 8 -6 18 -7 22 -5 4 3 8 0 8 -6
0 -7 -7 -10 -15 -7 -8 4 -17 1 -21 -5 -4 -7 -3 -8 4 -4 7 4 12 2 12 -4 0 -6 5
-8 11 -4 7 4 10 1 7 -7 -3 -8 2 -23 11 -33 9 -11 10 -16 3 -12 -6 4 -12 4 -13
-1 0 -4 -2 -18 -3 -30 -2 -17 0 -20 10 -12 8 7 14 6 20 -2 4 -7 3 -9 -3 -6 -6
4 -14 0 -17 -9 -4 -12 -2 -15 9 -11 19 8 31 -13 14 -24 -12 -7 -12 -9 0 -9 10
0 11 -3 2 -14 -10 -12 -8 -17 9 -26 18 -10 19 -14 8 -27 -11 -14 -10 -15 11
-8 18 6 22 4 15 -6 -14 -22 -15 -47 -2 -55 7 -5 8 -3 3 6 -6 9 -4 11 4 6 7 -5
10 -15 7 -23 -4 -9 -2 -11 6 -7 8 5 9 2 5 -9 -3 -9 -3 -16 1 -16 20 3 25 -2
12 -12 -12 -9 -10 -10 8 -6 13 3 21 3 18 0 -3 -4 2 -16 11 -27 18 -21 18 -21
-4 -3 -16 14 -23 15 -29 6 -4 -7 -3 -10 4 -5 6 3 14 0 19 -7 4 -7 16 -16 26
-20 9 -4 16 -10 15 -14 -5 -14 26 -49 42 -48 19 2 51 -25 44 -36 -3 -5 0 -9 5
-9 6 0 11 -7 11 -15 0 -13 25 -21 53 -16 4 0 6 -2 6 -6 -3 -19 2 -33 12 -33 5
0 7 5 3 12 -5 7 -3 8 6 3 10 -6 9 -11 -5 -22 -17 -12 -16 -13 13 -9 27 3 30 1
20 -11 -9 -11 -8 -13 3 -11 8 2 13 -3 11 -10 -1 -6 4 -11 10 -10 7 2 12 -2 11
-8 -1 -6 5 -11 13 -11 12 0 12 3 1 16 -23 27 -27 38 -12 38 8 0 12 -4 9 -8 -2
-4 3 -14 11 -23 9 -8 14 -26 11 -39 -2 -13 0 -30 5 -38 5 -8 9 -9 9 -4 0 6 6
-1 14 -15 7 -14 9 -30 5 -35 -10 -14 -8 -55 3 -55 4 0 8 -5 8 -11 0 -5 -3 -8
-8 -6 -4 3 -8 -6 -8 -19 -2 -20 1 -23 12 -13 8 7 17 9 21 5 3 -3 1 -6 -6 -6
-8 0 -11 -6 -7 -16 4 -10 2 -13 -7 -9 -6 4 -4 0 5 -8 24 -19 23 -27 -2 -22
-12 2 -18 0 -15 -6 4 -5 11 -7 16 -4 5 4 12 -1 15 -9 3 -9 11 -13 17 -9 6 3 7
1 3 -6 -4 -6 -12 -8 -18 -5 -6 4 -8 -1 -4 -14 4 -12 2 -23 -5 -28 -8 -4 -9 -3
-5 4 4 7 2 12 -3 12 -6 0 -11 -6 -11 -12 0 -7 -5 -5 -11 5 -6 10 -15 14 -22
10 -17 -11 -41 -10 -50 2 -5 6 -7 4 -4 -5 4 -17 35 -20 55 -6 7 5 12 4 12 -3
0 -6 -6 -12 -12 -12 -7 -1 -20 -2 -28 -3 -8 -1 -30 4 -48 11 -39 15 -42 9 -4
-12 15 -9 19 -14 9 -11 -10 3 -28 6 -38 6 -11 0 -18 4 -14 9 3 5 1 13 -5 16
-6 4 -9 1 -8 -7 2 -7 -6 -13 -18 -13 -12 -1 -30 -7 -40 -15 -11 -9 -15 -10
-10 -2 9 15 -6 16 -22 0 -9 -9 -12 -9 -12 0 0 7 -5 12 -11 12 -5 0 -7 -6 -3
-12 5 -8 0 -7 -11 2 -10 8 -16 11 -13 5 3 -5 -1 -16 -9 -24 -13 -12 -14 -11
-8 10 7 21 6 22 -9 10 -11 -9 -20 -10 -28 -4 -7 6 -20 10 -30 10 -13 0 -15 -5
-7 -25 l10 -26 -27 27 c-19 19 -30 24 -39 17 -8 -6 -15 -6 -23 2 -9 9 -12 9
-12 -1 0 -8 -6 -11 -16 -7 -9 3 -12 2 -9 -5 4 -5 15 -7 26 -4 14 5 19 2 18
-12 0 -10 -3 -13 -5 -6 -6 13 -60 1 -57 -14 1 -5 -5 -10 -12 -10 -11 0 -12 4
-4 14 7 8 8 13 1 13 -14 0 -23 -28 -10 -36 7 -4 6 -9 -3 -15 -10 -6 -11 -9 -1
-9 6 0 12 -5 12 -11 0 -5 -4 -8 -8 -5 -5 3 -9 -1 -9 -9 0 -8 4 -12 9 -9 10 6
11 -10 1 -20 -13 -13 -10 -47 3 -42 7 3 16 0 20 -6 4 -6 3 -8 -4 -4 -6 3 -14
-3 -17 -15 -6 -16 -1 -27 16 -41 13 -11 20 -18 14 -15 -5 3 -16 -1 -23 -9 -11
-12 -9 -14 10 -14 17 0 19 -3 10 -12 -7 -7 -12 -17 -12 -22 0 -6 5 -4 10 4 9
13 10 13 10 -1 0 -8 -5 -20 -11 -26 -8 -8 -7 -13 2 -18 8 -6 10 -4 4 5 -5 9
-4 11 3 6 9 -5 8 -12 -1 -28 -9 -16 -9 -22 1 -25 6 -3 12 -9 12 -14 0 -6 -4
-8 -8 -5 -10 6 -9 -30 1 -40 4 -4 2 -13 -4 -20 -7 -8 -7 -14 1 -19 6 -4 9 -1
8 6 -2 6 3 14 11 17 10 3 12 0 8 -10 -3 -9 0 -21 6 -28 7 -7 7 -10 2 -7 -6 3
-11 -3 -11 -13 0 -12 5 -16 16 -12 12 5 13 3 3 -9 -10 -13 -9 -19 6 -36 15
-16 17 -23 8 -33 -9 -10 -9 -11 2 -5 11 6 13 3 9 -13 -4 -15 -2 -22 9 -22 8 0
11 5 7 12 -4 7 -3 8 5 4 6 -4 9 -11 6 -16 -3 -4 -2 -10 2 -13 5 -2 2 -2 -5 -1
-9 3 -10 -1 -2 -16 6 -11 8 -25 5 -30 -3 -5 -1 -11 4 -14 5 -4 13 -1 17 5 5 8
3 9 -6 4 -9 -6 -11 -4 -6 4 9 14 19 7 22 -16 2 -9 10 -20 18 -25 9 -5 13 -15
9 -24 -3 -9 0 -20 8 -25 12 -8 12 -11 -1 -19 -21 -14 -3 -12 23 2 20 10 21 10
9 -5 -12 -14 -11 -16 9 -12 16 3 19 1 12 -6 -12 -12 -6 -49 9 -49 5 0 7 4 4 8
-3 5 1 9 10 9 10 0 12 -7 8 -20 -5 -16 -3 -19 10 -14 19 7 22 -9 4 -17 -7 -3
-1 -4 14 -2 15 1 25 0 22 -5 -2 -4 4 -12 13 -18 10 -6 13 -11 8 -11 -6 0 -17
6 -25 13 -12 10 -12 9 0 -6 9 -12 21 -16 37 -12 13 3 23 1 23 -5 0 -6 -4 -9
-9 -5 -5 3 -12 1 -16 -5 -4 -6 5 -10 19 -10 14 0 26 -4 26 -10 0 -5 5 -10 11
-10 5 0 7 5 4 10 -3 6 -2 10 4 10 5 0 13 -9 16 -21 4 -12 12 -18 21 -15 19 7
30 -14 13 -26 -11 -8 -10 -9 4 -4 11 3 20 0 24 -10 5 -13 7 -13 14 -2 5 7 17
13 28 14 15 1 18 -4 15 -25 -3 -18 -2 -22 5 -12 5 8 11 9 15 3 3 -6 15 -8 26
-5 11 3 20 0 20 -6 0 -6 6 -10 13 -9 6 2 11 -2 10 -8 -1 -6 4 -11 12 -11 7 0
11 5 9 12 -3 6 4 11 15 11 11 0 19 -5 18 -11 -1 -5 18 -11 42 -12 24 -1 48 -7
52 -14 4 -7 15 -14 23 -15 9 -1 13 2 10 8 -4 6 -2 8 4 4 5 -3 13 0 16 6 3 7 3
2 0 -12 -5 -23 -4 -23 9 -8 8 10 17 15 20 11 4 -3 1 -13 -6 -22 -10 -14 -10
-14 4 -3 12 9 24 10 42 3 18 -7 28 -7 33 1 5 7 3 8 -6 3 -8 -5 -11 -4 -7 3 8
12 32 10 44 -3 4 -4 2 -5 -6 0 -9 5 -12 4 -8 -3 8 -11 25 -11 45 1 8 5 12 2
12 -8 0 -11 5 -15 15 -12 8 4 17 2 20 -4 4 -5 12 -6 18 -2 7 4 19 8 27 10 8 1
21 10 29 20 13 16 13 17 8 0 -8 -22 2 -22 19 0 10 13 12 13 9 3 -4 -11 2 -15
19 -15 13 0 22 4 19 9 -4 5 0 5 8 0 17 -10 70 -6 86 7 7 7 16 3 26 -11 12 -18
15 -19 21 -5 4 11 2 14 -7 9 -6 -4 -9 -3 -4 1 11 13 47 13 47 1 0 -6 5 -4 10
4 8 12 10 12 10 1 0 -11 3 -11 17 0 10 8 14 9 10 2 -4 -6 -2 -15 4 -19 8 -5 9
-3 4 6 -6 10 -4 12 10 6 15 -5 16 -4 6 8 -9 11 -9 16 1 22 7 4 10 4 6 -1 -8
-8 20 -34 37 -35 6 0 3 5 -5 10 -13 9 -13 10 0 10 9 0 22 -6 29 -12 11 -10 13
-10 7 0 -4 6 -2 12 3 12 6 0 11 5 11 11 0 8 -6 7 -17 -2 -16 -13 -17 -12 -4 4
9 12 17 14 26 7 8 -6 16 -5 25 3 10 9 11 9 6 0 -4 -7 -2 -13 4 -13 6 0 13 7
17 16 5 13 7 13 14 2 5 -7 24 -13 43 -13 30 -1 33 1 25 17 -7 14 -6 16 6 12 9
-4 15 -1 15 7 1 8 8 3 16 -11 15 -24 15 -24 10 -2 -3 17 -1 21 7 14 20 -15 46
-22 52 -12 3 5 0 12 -6 16 -8 4 -9 3 -5 -4 5 -8 1 -10 -9 -5 -13 4 -14 8 -4
13 7 5 18 6 26 3 7 -3 13 0 13 5 0 6 9 9 20 7 11 -2 22 0 25 4 7 12 57 4 66
-11 6 -9 9 -5 9 12 0 20 2 22 10 10 9 -14 14 -7 11 13 -1 5 3 6 9 2 6 -3 8
-10 5 -15 -3 -5 0 -12 6 -16 8 -4 9 -3 5 4 -4 7 -1 12 8 12 9 0 16 5 16 11 0
5 -4 8 -9 4 -5 -3 -12 -1 -16 4 -3 6 3 8 15 6 11 -2 22 0 24 4 3 4 27 7 55 6
27 -1 48 2 45 7 -8 12 10 9 26 -4 8 -7 6 -2 -5 11 l-20 24 25 -13 c23 -12 24
-12 12 3 -12 14 -11 15 16 7 26 -7 30 -6 25 8 -4 10 -2 14 2 9 5 -4 16 0 26 9
13 12 19 12 25 3 4 -7 3 -10 -3 -6 -6 4 -16 1 -22 -7 -10 -11 -7 -14 13 -12
13 0 23 3 21 6 -2 3 4 14 12 25 13 16 15 17 10 3 -7 -20 1 -22 23 -8 12 8 12
10 1 10 -8 0 -11 3 -8 7 4 3 16 -2 26 -11 19 -17 19 -17 14 3 -3 13 -1 21 6
21 7 0 10 -4 7 -8 -3 -5 1 -9 9 -9 9 0 14 5 13 11 -2 7 4 19 12 27 13 15 16
15 28 0 7 -9 11 -11 8 -4 -4 6 -2 14 4 18 5 3 10 0 11 -7 0 -7 4 -3 9 9 9 21
14 22 60 11 9 -2 14 3 12 14 -2 12 4 16 23 14 16 -2 25 2 25 11 0 8 4 12 9 8
6 -3 15 3 21 12 10 16 10 15 5 -4 -4 -14 -2 -23 5 -23 6 0 8 5 5 10 -3 6 -1
10 5 10 6 0 9 4 5 9 -3 5 0 13 6 17 8 4 9 3 5 -4 -10 -16 7 -15 23 1 8 6 11 7
8 1 -3 -6 0 -11 8 -11 10 0 11 5 4 19 -6 10 -15 15 -21 12 -7 -5 -8 -2 -3 5 5
9 10 10 18 2 8 -8 16 -6 31 7 11 9 16 12 13 5 -5 -8 0 -11 13 -10 19 1 19 2 3
27 -13 20 -14 23 -1 13 8 -7 19 -9 23 -5 5 4 5 1 0 -7 -5 -9 -3 -12 6 -9 8 3
12 14 11 24 -3 16 -1 16 17 -5 23 -26 27 -21 10 10 -10 20 -9 20 14 5 20 -14
24 -14 24 -1 0 8 -5 11 -11 8 -6 -4 -5 1 3 10 12 15 31 15 31 1 0 -3 -5 -2
-12 2 -7 5 -8 3 -4 -5 9 -13 21 -6 21 12 1 7 7 11 14 9 9 -2 11 3 7 14 -5 14
-4 15 9 4 9 -8 15 -8 15 -2 0 11 38 28 53 24 5 -1 5 3 1 9 -5 9 -2 10 10 6 11
-4 15 -3 11 4 -4 6 2 13 14 16 12 3 21 9 21 14 0 5 5 9 11 9 5 0 7 -5 3 -12
-4 -6 -3 -8 4 -4 6 3 9 15 7 25 -3 15 1 18 17 13 15 -3 19 -1 14 7 -5 7 -2 10
6 9 7 -2 12 5 12 15 -2 17 0 17 22 2 13 -8 24 -11 24 -6 0 5 -6 11 -12 14 -17
6 -7 16 18 20 19 2 28 17 17 27 -4 3 -3 -1 2 -9 5 -10 4 -12 -4 -7 -16 11 -3
26 16 19 11 -4 14 -3 9 6 -5 8 0 10 18 7 14 -3 29 0 32 6 4 7 2 8 -4 4 -22
-14 -12 20 13 44 13 12 22 26 20 31 -3 4 -1 10 4 13 10 7 9 -13 -1 -30 -4 -6
-1 -11 7 -11 8 0 12 3 10 7 -2 4 3 17 11 29 13 18 19 20 30 10 12 -10 15 -10
12 2 -2 8 -7 18 -13 22 -6 5 0 7 13 4 12 -3 20 -2 17 3 -3 4 2 11 10 14 8 3
14 9 13 13 -1 4 8 24 20 43 12 19 22 30 22 24 0 -6 -10 -24 -22 -40 -12 -16
-15 -23 -7 -17 9 7 20 9 24 5 5 -4 5 -1 1 6 -4 7 -1 15 8 18 8 3 13 14 11 25
-2 10 1 22 7 25 6 4 8 2 4 -4 -3 -6 -1 -14 6 -18 7 -4 10 -4 6 1 -4 4 -2 17 4
29 7 11 11 24 10 28 -1 4 7 5 18 3 18 -3 19 -1 8 18 -11 21 -10 21 7 7 11 -9
16 -10 11 -2 -4 7 -2 12 4 12 6 0 8 5 5 10 -4 6 -11 7 -17 4 -7 -4 -8 -2 -4 5
4 6 12 9 17 6 5 -4 9 -1 9 4 0 6 7 11 15 11 8 0 14 6 13 13 -2 6 2 11 9 10 7
-2 10 4 7 12 -4 10 0 15 12 15 16 0 16 1 -2 15 -18 14 -18 14 4 8 22 -5 23 -3
26 37 1 8 9 14 18 14 15 -1 16 2 6 20 -10 19 -10 20 6 7 15 -12 16 -12 9 5 -6
17 -5 18 12 4 18 -15 18 -14 0 13 -16 26 -16 27 0 21 15 -6 16 -4 5 17 l-13
24 23 -20 23 -20 -12 22 c-15 29 -14 38 3 24 11 -9 16 -9 22 0 4 8 3 9 -4 5
-7 -4 -12 -3 -12 3 0 5 6 12 13 14 10 4 10 6 0 6 -7 1 -13 5 -13 11 0 5 3 9 8
9 21 -4 42 2 42 12 0 5 -5 7 -12 3 -7 -5 -8 -3 -4 5 5 7 15 10 23 6 12 -4 13
-2 5 8 -8 10 -6 13 8 13 10 0 16 -5 13 -11 -4 -6 -1 -5 6 1 7 6 13 20 14 31 1
15 7 20 24 18 19 -2 21 0 11 12 -6 8 -7 13 -2 12 26 -5 36 2 31 21 -3 11 0 23
5 27 7 3 8 1 4 -5 -4 -7 -2 -12 4 -12 6 0 8 -6 4 -12 -4 -8 -3 -10 2 -5 5 5 9
18 9 30 1 12 6 21 13 20 7 -2 12 2 12 8 0 8 6 7 17 -2 15 -13 15 -12 3 11 -12
23 -12 24 4 11 14 -12 16 -12 9 4 -5 15 -3 17 12 12 16 -7 16 -5 4 10 -9 11
-10 14 -1 9 8 -4 12 -1 12 9 0 11 5 15 14 12 10 -4 13 0 11 14 -2 11 0 17 6
14 5 -4 9 1 9 10 0 9 5 13 10 10 6 -3 10 3 10 14 0 12 5 21 11 21 5 0 7 -5 3
-12 -4 -7 -3 -8 5 -4 9 6 9 11 0 22 -10 12 -10 15 2 12 8 -2 17 -7 21 -13 4
-5 6 5 3 23 -3 27 -1 31 10 22 10 -8 15 -8 21 1 4 8 3 9 -4 5 -7 -4 -12 -1
-12 9 0 9 4 14 8 11 5 -3 15 11 22 30 9 23 19 33 28 29 12 -4 13 -3 3 9 -11
13 -9 15 8 11 11 -2 24 1 27 7 4 7 2 8 -4 4 -7 -4 -12 -2 -12 4 0 6 -5 8 -12
4 -9 -5 -9 -2 1 9 15 19 26 23 15 5 -4 -7 -3 -8 5 -4 9 6 9 11 0 22 -9 11 -9
14 1 14 7 0 10 7 6 16 -3 8 -2 12 4 9 6 -3 10 -1 10 4 0 6 5 11 10 11 6 0 3
-12 -6 -28 l-16 -27 20 25 c14 17 17 28 11 36 -7 8 -6 14 1 19 6 3 7 11 4 17
-4 7 -2 8 5 4 9 -6 9 -12 -1 -24 -12 -15 -11 -16 4 -3 14 11 15 17 6 35 -11
20 -10 20 8 6 10 -8 16 -10 12 -6 -4 5 -2 16 5 24 9 13 9 14 0 8 -7 -4 -13 -3
-13 3 0 5 6 12 13 14 9 4 9 6 0 6 -7 1 -10 8 -6 17 5 13 7 13 14 2 7 -10 9
-11 9 0 0 7 4 11 8 8 5 -3 9 1 9 9 0 8 -4 12 -8 9 -4 -2 -11 1 -15 7 -4 7 -3
9 2 6 6 -3 16 -2 24 4 9 5 10 9 4 9 -7 0 -15 7 -18 16 -5 14 -4 15 9 4 13 -11
14 -10 9 5 -6 14 -4 16 7 10 12 -7 12 -6 1 7 -10 13 -10 18 -1 24 8 4 9 3 5
-4 -10 -17 -1 -15 13 2 9 11 9 16 0 22 -8 5 -9 3 -4 -6 5 -8 4 -11 -3 -6 -6 4
-9 13 -6 21 4 8 10 12 15 9 14 -8 10 3 -7 20 -13 14 -14 16 0 16 8 0 18 5 22
12 4 7 3 8 -4 4 -8 -5 -12 1 -12 14 0 12 4 18 10 15 5 -3 7 0 4 9 -3 8 -13 13
-22 10 -9 -3 -6 1 7 9 23 14 23 15 5 25 -11 7 -13 12 -6 12 7 0 10 5 6 12 -4
7 -3 8 5 4 6 -4 9 -12 6 -17 -4 -5 -2 -9 4 -9 5 0 13 5 16 10 3 5 1 10 -4 10
-6 0 -11 7 -11 16 0 8 4 13 9 10 12 -8 9 27 -3 36 -6 4 -4 13 3 22 9 11 10 16
2 16 -6 0 -11 5 -11 11 0 5 4 8 9 5 10 -7 9 13 -1 29 -4 6 -3 17 3 25 12 20
11 33 -2 24 -8 -5 -8 -1 0 14 14 27 14 35 -1 26 -7 -5 -8 -3 -2 7 12 20 14 80
1 72 -6 -4 -7 -1 -1 8 12 20 14 80 1 72 -6 -4 -7 -1 -1 8 5 8 9 21 9 29 0 8 4
20 8 26 4 7 0 17 -8 24 -14 12 -9 44 6 34 5 -3 6 2 3 10 -3 9 -10 13 -15 10
-5 -3 -6 2 -3 10 3 8 13 12 22 9 12 -3 13 -2 4 4 -7 5 -14 27 -15 49 -1 21 -6
44 -10 51 -5 7 0 10 15 6 22 -4 22 -3 -2 11 -22 13 -21 21 2 17 4 0 5 6 2 14
-4 8 -9 13 -13 11 -4 -3 -7 4 -7 14 0 14 4 16 12 9 8 -7 15 -6 20 2 4 8 3 9
-4 5 -15 -9 -16 6 -2 20 7 7 6 11 -4 11 -8 0 -12 -5 -9 -10 3 -6 1 -7 -5 -3
-6 4 -9 13 -6 21 4 8 11 12 18 8 6 -4 4 2 -4 12 -13 17 -13 18 1 13 9 -4 16
-1 16 7 0 7 -8 12 -17 10 -12 -2 -16 3 -15 18 1 12 9 23 18 25 21 4 22 16 2
32 -9 7 -14 19 -11 25 2 7 -1 18 -7 25 -9 10 -6 9 13 0 22 -12 23 -11 13 2
-10 11 -10 17 0 28 9 11 7 10 -7 0 -18 -13 -19 -13 -13 2 3 9 1 19 -6 22 -7 2
-5 5 5 5 9 1 20 6 23 11 4 6 1 9 -6 8 -6 -2 -14 3 -17 11 -3 9 0 11 9 6 11 -6
10 -4 -1 11 -16 20 -18 38 -6 65 4 8 2 28 -4 43 -5 15 -6 25 -1 22 5 -3 11 5
13 19 3 13 2 22 -2 20 -12 -7 -18 43 -7 54 6 6 6 20 -1 41 -6 17 -7 28 -3 25
5 -2 11 6 13 20 3 13 2 22 -2 20 -12 -7 -18 43 -7 54 6 6 6 20 -1 41 -6 17 -7
28 -3 25 5 -2 11 6 13 20 3 13 2 22 -2 20 -12 -7 -18 43 -7 54 6 6 6 20 -1 41
-6 17 -7 28 -2 25 12 -7 7 85 -5 105 -8 13 -6 13 8 1 15 -12 17 -12 11 4 -6
14 -4 16 6 10 9 -5 11 -4 6 4 -4 6 -11 9 -16 6 -5 -3 -11 -1 -15 5 -3 6 4 10
17 10 20 1 21 2 6 11 -10 5 -18 15 -18 20 0 6 4 8 9 4 5 -3 13 0 17 6 4 7 3 9
-3 6 -6 -4 -16 0 -22 7 -10 12 -8 13 11 9 22 -5 22 -5 4 9 -18 15 -14 44 5 33
5 -4 9 -1 9 5 0 7 -7 10 -15 7 -11 -5 -13 0 -9 22 3 16 0 39 -7 52 -11 22 -11
23 5 10 14 -12 16 -12 10 4 -6 14 -4 16 6 10 9 -5 11 -4 6 4 -4 6 -11 9 -16 6
-5 -3 -11 -1 -15 5 -3 6 4 10 17 10 20 1 21 2 6 11 -10 5 -18 15 -18 20 0 6 4
8 9 4 5 -3 13 0 17 6 4 7 3 9 -3 6 -6 -4 -16 0 -22 7 -10 12 -8 13 11 9 22 -5
22 -5 4 9 -18 15 -14 44 5 33 5 -4 9 -1 9 5 0 7 -7 10 -15 7 -11 -5 -13 0 -9
22 3 16 0 39 -7 52 -11 22 -11 23 5 10 14 -12 16 -12 10 4 -6 14 -4 16 6 10 9
-5 11 -4 6 4 -4 6 -11 9 -16 6 -5 -3 -11 -1 -15 5 -3 5 1 10 9 10 8 0 18 5 21
10 4 6 1 9 -6 8 -6 -2 -14 3 -17 11 -3 9 0 11 9 6 11 -6 10 -4 -1 11 -16 20
-18 38 -6 65 4 8 2 28 -4 43 -5 15 -6 25 -1 22 5 -3 11 5 13 19 3 13 2 22 -2
20 -12 -7 -18 43 -7 54 6 6 6 20 -1 41 -6 17 -7 28 -3 25 5 -2 11 6 13 20 3
13 2 22 -2 20 -12 -7 -18 43 -7 54 6 6 6 20 -1 41 -6 17 -7 28 -3 25 5 -2 11
6 13 20 3 13 2 22 -2 20 -12 -7 -18 43 -7 54 6 6 6 20 -1 41 -6 17 -7 28 -2
25 12 -7 7 85 -5 105 -8 13 -6 13 8 1 15 -12 17 -12 11 4 -6 14 -4 16 6 10 9
-5 11 -4 6 4 -4 6 -11 9 -16 6 -5 -3 -11 -1 -15 5 -3 6 4 10 17 10 20 1 21 2
6 11 -10 5 -18 15 -18 20 0 6 4 8 9 4 5 -3 13 0 17 6 4 7 3 9 -3 6 -6 -4 -16
0 -22 7 -10 12 -8 13 11 9 22 -5 22 -5 4 9 -18 15 -14 44 5 33 5 -4 9 -1 9 5
0 7 -7 10 -15 7 -11 -5 -13 0 -9 22 3 16 0 39 -7 52 -11 22 -11 23 5 10 14
-12 16 -12 10 4 -6 14 -4 16 6 10 9 -5 11 -4 6 4 -4 6 -11 9 -16 6 -5 -3 -11
-1 -15 5 -3 6 4 10 17 10 20 1 21 2 6 11 -10 5 -18 15 -18 20 0 6 4 8 9 4 5
-3 13 0 17 6 4 7 3 9 -3 6 -6 -4 -16 0 -22 7 -10 12 -8 13 11 9 22 -5 22 -5 4
9 -18 15 -14 44 5 33 5 -4 9 -1 9 5 0 7 -7 10 -15 7 -11 -5 -13 0 -9 22 3 16
0 39 -7 52 -11 22 -11 23 5 10 14 -12 16 -12 10 4 -6 14 -4 16 6 10 9 -5 11
-4 6 4 -4 6 -11 9 -16 6 -5 -3 -11 -1 -15 5 -3 5 1 10 9 10 8 0 18 5 21 10 4
6 1 9 -6 8 -6 -2 -14 3 -17 11 -3 9 0 11 9 6 11 -6 10 -4 -1 11 -16 20 -18 38
-6 65 4 8 2 28 -4 43 -5 15 -6 25 -1 22 5 -3 11 5 13 19 3 13 2 22 -2 20 -12
-7 -18 43 -7 54 6 6 6 20 -1 41 -6 17 -7 28 -3 25 5 -2 11 6 13 20 3 13 2 22
-2 20 -12 -7 -18 43 -7 54 6 6 6 20 -1 41 -6 17 -7 28 -3 25 5 -2 11 6 13 20
3 13 2 22 -2 20 -12 -7 -18 43 -7 54 6 6 6 20 -1 41 -6 17 -7 28 -2 25 12 -7
7 85 -5 105 -8 13 -6 13 8 1 15 -12 17 -12 11 4 -6 14 -4 16 6 10 9 -5 11 -4
6 4 -4 6 -11 9 -16 6 -5 -3 -11 -1 -15 5 -3 6 4 10 17 10 20 1 21 2 6 11 -10
5 -18 15 -18 20 0 6 4 8 9 4 5 -3 13 0 17 6 4 7 3 9 -3 6 -6 -4 -16 0 -22 7
-10 12 -8 13 11 9 22 -5 22 -5 4 9 -18 15 -14 44 5 33 5 -4 9 -1 9 5 0 7 -7
10 -15 7 -11 -5 -13 0 -9 22 3 16 0 39 -7 52 -11 22 -11 23 5 10 14 -12 16
-12 10 4 -6 14 -4 16 6 10 9 -5 11 -4 6 4 -4 6 -11 9 -16 6 -5 -3 -11 -1 -15
5 -3 6 4 10 17 10 20 1 21 2 6 11 -10 5 -18 15 -18 20 0 6 4 8 9 4 5 -3 13 0
17 6 4 7 3 9 -3 6 -6 -4 -16 0 -22 7 -10 12 -8 13 11 9 22 -5 22 -5 4 9 -18
15 -14 44 5 33 5 -4 9 -1 9 5 0 7 -7 10 -15 7 -11 -5 -13 0 -9 22 3 16 0 39
-7 52 -11 22 -11 23 5 10 14 -12 16 -12 10 4 -6 14 -4 16 6 10 9 -5 11 -4 6 4
-4 6 -11 9 -16 6 -5 -3 -11 -1 -15 5 -3 5 1 10 9 10 8 0 18 5 21 10 4 6 1 9
-6 8 -6 -2 -14 3 -17 11 -3 9 0 11 9 6 11 -6 10 -4 -1 11 -16 20 -18 38 -6 65
4 8 2 28 -4 43 -6 18 -6 25 0 21 12 -7 7 96 -5 116 -5 8 -4 10 3 5 17 -10 15
6 -4 32 -8 12 -12 27 -9 32 3 6 4 10 1 10 -3 0 -7 -3 -8 -7z m-588 -157 c0 -3
-4 -8 -10 -11 -5 -3 -10 -1 -10 4 0 6 5 11 10 11 6 0 10 -2 10 -4z m-150 -21
c0 -2 -10 -9 -22 -15 -22 -11 -22 -10 -4 4 21 17 26 19 26 11z m-1723 -348 c0
-8 -6 -14 -14 -14 -9 0 -10 4 -2 14 6 7 12 13 14 13 1 0 2 -6 2 -13z m113 -1
c0 -2 -7 -7 -16 -10 -8 -3 -12 -2 -9 4 6 10 25 14 25 6z m230 -10 c0 -2 -7 -7
-16 -10 -8 -3 -12 -2 -9 4 6 10 25 14 25 6z m-656 -57 c3 -3 -4 -5 -14 -6 -11
-1 -20 2 -20 7 0 8 25 8 34 -1z m866 -14 c11 -13 10 -14 -4 -9 -9 3 -16 10
-16 15 0 13 6 11 20 -6z m-1034 -37 c4 -7 4 -10 -1 -6 -4 4 -15 2 -24 -5 -14
-11 -14 -10 -2 6 16 20 18 21 27 5z m-206 -112 c0 -2 -8 -10 -17 -17 -16 -13
-17 -12 -4 4 13 16 21 21 21 13z m-206 -121 c-4 -8 -11 -15 -16 -15 -6 0 -5 6
2 15 7 8 14 15 16 15 2 0 1 -7 -2 -15z m-49 -55 c4 -6 1 -9 -5 -8 -7 2 -14 -5
-15 -15 -2 -11 -6 -22 -9 -25 -9 -8 -2 30 7 46 10 15 14 15 22 2z m-85 -104
c0 -2 -7 -7 -16 -10 -8 -3 -12 -2 -9 4 6 10 25 14 25 6z m-820 -2390 c0 -2 -8
-10 -17 -17 -16 -13 -17 -12 -4 4 13 16 21 21 21 13z m0 -320 c0 -2 -8 -10
-17 -17 -16 -13 -17 -12 -4 4 13 16 21 21 21 13z m0 -480 c0 -2 -8 -10 -17
-17 -16 -13 -17 -12 -4 4 13 16 21 21 21 13z m4347 -102 c-3 -3 -12 -4 -19 -1
-8 3 -5 6 6 6 11 1 17 -2 13 -5z m-4350 -711 c0 -9 -4 -10 -14 -2 -7 6 -13 12
-13 14 0 1 6 2 13 2 8 0 14 -6 14 -14z m13 -48 c0 -2 -9 -3 -19 -2 -11 0 -18
5 -15 9 4 6 34 0 34 -7z m2147 -497 c2 -17 0 -19 -7 -8 -5 8 -6 18 -4 22 8 12
10 10 11 -14z m-22 -8 c3 -5 1 -10 -4 -10 -6 0 -11 5 -11 10 0 6 2 10 4 10 3
0 8 -4 11 -10z m22 -33 c0 -8 -6 -14 -14 -14 -9 0 -10 4 -2 14 6 7 12 13 14
13 1 0 2 -6 2 -13z m-1638 -460 c8 -10 7 -14 -2 -14 -8 0 -14 6 -14 14 0 7 1
13 2 13 2 0 8 -6 14 -13z m-154 -347 c-3 -5 -12 -10 -18 -10 -7 0 -6 4 3 10
19 12 23 12 15 0z m-275 -22 c0 -18 -2 -20 -9 -8 -6 8 -7 18 -5 22 9 14 14 9
14 -14z m70 12 c0 -5 -2 -10 -4 -10 -3 0 -8 5 -11 10 -3 6 -1 10 4 10 6 0 11
-4 11 -10z m3405 -9 c3 -5 2 -12 -3 -15 -5 -3 -9 1 -9 9 0 17 3 19 12 6z
m-3565 -137 c0 -8 -19 -13 -24 -6 -3 5 1 9 9 9 8 0 15 -2 15 -3z m-5 -63 c3
-5 2 -12 -3 -15 -5 -3 -9 1 -9 9 0 17 3 19 12 6z m42 -247 c-9 -9 -28 6 -21
18 4 6 10 6 17 -1 6 -6 8 -13 4 -17z m34 -121 c13 -16 12 -17 -3 -4 -17 13
-22 21 -14 21 2 0 10 -8 17 -17z m417 -488 c-3 -3 -9 2 -12 12 -6 14 -5 15 5
6 7 -7 10 -15 7 -18z m1152 -66 c0 -4 -9 -7 -19 -6 -11 0 -18 4 -16 7 6 9 35
8 35 -1z m-746 -38 c-2 -3 -12 3 -22 13 -16 17 -16 18 5 5 12 -7 20 -15 17
-18z m165 -2 c6 9 10 8 15 -5 4 -10 4 -15 0 -11 -4 4 -13 2 -21 -4 -10 -9 -13
-8 -13 1 0 7 -7 10 -14 7 -10 -4 -13 -1 -9 9 4 11 8 12 20 2 11 -9 16 -9 22 1z"/>
<path d="M5920 7699 c0 -5 5 -7 10 -4 6 3 10 8 10 11 0 2 -4 4 -10 4 -5 0 -10
-5 -10 -11z"/>
<path d="M5785 7680 c-3 -5 -13 -7 -23 -4 -14 5 -14 4 -2 -4 9 -7 19 -7 26 -2
6 6 15 6 19 2 5 -4 5 -1 1 6 -9 15 -13 15 -21 2z"/>
<path d="M5523 7625 c0 -7 6 -11 14 -8 7 3 13 6 13 8 0 2 -6 5 -13 8 -8 3 -14
-1 -14 -8z"/>
<path d="M5466 7608 c3 -5 10 -6 15 -3 13 9 11 12 -6 12 -8 0 -12 -4 -9 -9z"/>
<path d="M5330 7585 c-11 -13 -10 -14 4 -9 9 3 16 10 16 15 0 13 -6 11 -20 -6z"/>
<path d="M5195 7560 c3 -5 8 -10 11 -10 2 0 4 5 4 10 0 6 -5 10 -11 10 -5 0
-7 -4 -4 -10z"/>
<path d="M5035 7520 c-3 -5 -1 -10 4 -10 6 0 11 5 11 10 0 6 -2 10 -4 10 -3 0
-8 -4 -11 -10z"/>
<path d="M6071 7487 c-8 -10 -7 -14 2 -14 8 0 14 6 14 14 0 7 -1 13 -2 13 -2
0 -8 -6 -14 -13z"/>
<path d="M4730 7450 c0 -5 5 -10 11 -10 5 0 7 5 4 10 -3 6 -8 10 -11 10 -2 0
-4 -4 -4 -10z"/>
<path d="M6065 7450 c-3 -5 -1 -10 4 -10 6 0 11 5 11 10 0 6 -2 10 -4 10 -3 0
-8 -4 -11 -10z"/>
<path d="M3807 7246 c-4 -10 -3 -15 3 -11 6 3 10 1 10 -6 0 -7 3 -10 6 -6 3 3
2 13 -4 22 -8 16 -9 16 -15 1z"/>
<path d="M3381 7214 c0 -11 3 -14 6 -6 3 7 2 16 -1 19 -3 4 -6 -2 -5 -13z"/>
<path d="M3297 7193 c-4 -3 -7 -11 -7 -17 0 -6 5 -5 12 2 6 6 9 14 7 17 -3 3
-9 2 -12 -2z"/>
<path d="M3189 7153 c-13 -16 -12 -17 4 -4 9 7 17 15 17 17 0 8 -8 3 -21 -13z"/>
<path d="M4076 7162 c-3 -5 1 -9 9 -9 8 0 12 4 9 9 -3 4 -7 8 -9 8 -2 0 -6 -4
-9 -8z"/>
<path d="M6071 6687 c-8 -10 -7 -14 2 -14 8 0 14 6 14 14 0 7 -1 13 -2 13 -2
0 -8 -6 -14 -13z"/>
<path d="M6071 6527 c-8 -10 -7 -14 2 -14 8 0 14 6 14 14 0 7 -1 13 -2 13 -2
0 -8 -6 -14 -13z"/>
<path d="M2295 6390 c-3 -5 -1 -10 4 -10 6 0 11 5 11 10 0 6 -2 10 -4 10 -3 0
-8 -4 -11 -10z"/>
<path d="M6071 6367 c-8 -10 -7 -14 2 -14 8 0 14 6 14 14 0 7 -1 13 -2 13 -2
0 -8 -6 -14 -13z"/>
<path d="M2083 6225 c4 -5 -3 -15 -15 -22 -13 -7 -18 -12 -12 -13 5 0 18 6 29
13 15 12 16 15 4 22 -8 5 -10 4 -6 0z"/>
<path d="M6071 6207 c-8 -10 -7 -14 2 -14 8 0 14 6 14 14 0 7 -1 13 -2 13 -2
0 -8 -6 -14 -13z"/>
<path d="M6065 6170 c-3 -5 -1 -10 4 -10 6 0 11 5 11 10 0 6 -2 10 -4 10 -3 0
-8 -4 -11 -10z"/>
<path d="M1975 6099 c-4 -6 -5 -12 -2 -15 2 -3 7 2 10 11 7 17 1 20 -8 4z"/>
<path d="M1750 5549 c0 -5 5 -7 10 -4 6 3 10 8 10 11 0 2 -4 4 -10 4 -5 0 -10
-5 -10 -11z"/>
<path d="M6071 5407 c-8 -10 -7 -14 2 -14 8 0 14 6 14 14 0 7 -1 13 -2 13 -2
0 -8 -6 -14 -13z"/>
<path d="M1730 5371 c0 -7 -4 -10 -9 -6 -11 6 -6 -34 5 -44 4 -3 5 1 1 10 -3
9 0 22 6 28 6 6 8 14 4 18 -4 3 -7 1 -7 -6z"/>
<path d="M1704 5273 c2 -10 -2 -21 -8 -25 -7 -5 -4 -8 6 -8 17 0 21 31 6 46
-4 3 -5 -2 -4 -13z"/>
<path d="M6071 5247 c-8 -10 -7 -14 2 -14 8 0 14 6 14 14 0 7 -1 13 -2 13 -2
0 -8 -6 -14 -13z"/>
<path d="M6071 5087 c-8 -10 -7 -14 2 -14 8 0 14 6 14 14 0 7 -1 13 -2 13 -2
0 -8 -6 -14 -13z"/>
<path d="M6071 4927 c-8 -10 -7 -14 2 -14 8 0 14 6 14 14 0 7 -1 13 -2 13 -2
0 -8 -6 -14 -13z"/>
<path d="M6065 4890 c-3 -5 -1 -10 4 -10 6 0 11 5 11 10 0 6 -2 10 -4 10 -3 0
-8 -4 -11 -10z"/>
<path d="M6071 4127 c-8 -10 -7 -14 2 -14 8 0 14 6 14 14 0 7 -1 13 -2 13 -2
0 -8 -6 -14 -13z"/>
<path d="M6071 3967 c-8 -10 -7 -14 2 -14 8 0 14 6 14 14 0 7 -1 13 -2 13 -2
0 -8 -6 -14 -13z"/>
<path d="M6071 3807 c-8 -10 -7 -14 2 -14 8 0 14 6 14 14 0 7 -1 13 -2 13 -2
0 -8 -6 -14 -13z"/>
<path d="M6071 3647 c-8 -10 -7 -14 2 -14 8 0 14 6 14 14 0 7 -1 13 -2 13 -2
0 -8 -6 -14 -13z"/>
<path d="M6065 3610 c-3 -5 -1 -10 4 -10 6 0 11 5 11 10 0 6 -2 10 -4 10 -3 0
-8 -4 -11 -10z"/>
<path d="M1993 1863 c-7 -3 -13 -9 -13 -15 0 -7 5 -6 14 1 11 10 15 8 18 -6 2
-12 6 -14 11 -7 8 14 -13 33 -30 27z"/>
<path d="M2070 1780 c0 -6 4 -9 9 -6 5 4 12 1 14 -4 3 -6 4 -5 3 2 -3 15 -26
23 -26 8z"/>
<path d="M2233 1597 c0 -8 6 -14 14 -14 9 0 10 4 2 14 -6 7 -12 13 -14 13 -1
0 -2 -6 -2 -13z"/>
<path d="M1715 1290 c3 -5 8 -10 11 -10 2 0 4 5 4 10 0 6 -5 10 -11 10 -5 0
-7 -4 -4 -10z"/>
<path d="M4930 865 c-10 -12 -8 -13 10 -10 29 6 34 11 16 18 -8 3 -20 0 -26
-8z"/>
<path d="M1870 519 c0 -5 5 -7 10 -4 6 3 10 8 10 11 0 2 -4 4 -10 4 -5 0 -10
-5 -10 -11z"/>
<path d="M4233 415 c0 -8 4 -12 9 -9 5 3 6 10 3 15 -9 13 -12 11 -12 -6z"/>
<path d="M4082 371 c-11 -6 -9 -9 6 -13 15 -4 19 -2 15 8 -6 16 -4 16 -21 5z"/>
<path d="M3714 248 c-3 -5 -3 -12 0 -15 3 -4 6 -1 6 4 0 13 17 12 40 -1 12 -7
13 -6 3 4 -16 17 -41 21 -49 8z"/>
<path d="M2235 220 c3 -5 8 -10 11 -10 2 0 4 5 4 10 0 6 -5 10 -11 10 -5 0 -7
-4 -4 -10z"/>
<path d="M3554 210 c-3 -3 -10 -6 -15 -6 -5 -1 -13 -2 -19 -3 -5 0 -10 -6 -10
-12 0 -5 5 -7 10 -4 6 3 10 0 10 -7 0 -10 2 -10 9 1 5 8 17 16 27 17 25 4 37
20 13 20 -11 0 -22 -3 -25 -6z"/>
<path d="M2390 161 c0 -6 4 -13 10 -16 6 -3 7 1 4 9 -7 18 -14 21 -14 7z"/>
<path d="M3310 151 c0 -6 4 -13 10 -16 6 -3 7 1 4 9 -7 18 -14 21 -14 7z"/>
<path d="M2470 139 c0 -5 5 -7 10 -4 6 3 10 8 10 11 0 2 -4 4 -10 4 -5 0 -10
-5 -10 -11z"/>
<path d="M3003 118 c-5 -7 -13 -20 -17 -28 -6 -12 -4 -11 6 1 7 9 16 17 21 17
8 2 11 12 4 18 -2 2 -9 -1 -14 -8z"/>
</g>
</svg>
